<?xml version="1.0" standalone="no"?>
<!DOCTYPE svg PUBLIC "-//W3C//DTD SVG 20010904//EN"
 "http://www.w3.org/TR/2001/REC-SVG-20010904/DTD/svg10.dtd">
<svg version="1.0" xmlns="http://www.w3.org/2000/svg"
 width="300.000000pt" height="300.000000pt" viewBox="0 0 300.000000 300.000000"
 preserveAspectRatio="xMidYMid meet">
<metadata>
Created by potrace 1.10, written by Peter Selinger 2001-2011
</metadata>
<g transform="translate(0.000000,300.000000) scale(0.100000,-0.100000)"
fill="#000000" stroke="none">
<path d="M1845 2103 c-89 -12 -189 -58 -251 -115 -50 -46 -68 -46 -29 0 14 16
25 32 25 35 0 3 -26 15 -57 27 -75 28 -131 23 -181 -17 -106 -84 -88 -190 45
-265 58 -33 67 -44 27 -34 -24 6 -25 5 -22 -30 3 -35 1 -38 -30 -46 -42 -11
-78 0 -202 63 -52 26 -115 53 -140 58 -58 13 -150 12 -220 -2 l-55 -12 -3 -58
c-4 -72 21 -130 79 -181 45 -41 56 -43 101 -17 18 10 56 24 85 30 44 9 63 7
125 -10 40 -12 102 -23 138 -25 57 -4 71 -1 115 24 40 22 49 32 47 51 l-2 23
29 -24 c37 -32 111 -52 157 -45 120 20 207 169 159 271 -10 20 -16 39 -13 41
2 3 59 -26 126 -64 132 -75 170 -91 214 -91 47 0 82 25 112 80 54 100 29 243
-53 297 -19 13 -46 23 -60 23 -40 0 -88 -35 -113 -82 -32 -61 -31 -174 2 -238
19 -37 20 -42 5 -30 -82 68 -66 283 25 338 l31 19 -53 6 c-55 7 -111 7 -163 0z
m109 -34 c3 -3 -4 -34 -15 -70 -11 -35 -19 -84 -18 -109 2 -87 5 -84 -57 -51
-31 16 -64 27 -73 24 -36 -13 -39 -23 -34 -98 5 -64 3 -78 -17 -109 -31 -52
-86 -86 -135 -86 l-40 1 50 21 c100 44 138 114 101 186 -9 17 -13 38 -10 46 7
19 -4 20 -42 6 l-26 -10 25 -24 c53 -49 45 -108 -22 -153 -49 -33 -112 -31
-147 5 l-26 27 5 -28 c3 -22 0 -30 -17 -37 -12 -4 -28 -15 -35 -24 -43 -52
-134 -62 -253 -28 -99 28 -139 27 -213 -3 -33 -14 -65 -25 -71 -25 -18 0 -64
51 -85 94 -43 89 -15 125 98 132 93 6 149 -10 277 -75 89 -44 120 -55 163 -56
48 -2 56 1 78 27 14 16 25 37 25 47 0 9 5 22 11 28 16 16 -3 47 -44 71 -52 33
-78 67 -84 110 -5 36 -2 44 34 82 36 39 43 42 91 43 62 0 98 -23 82 -54 -9
-16 -13 -17 -42 -5 -84 36 -158 -67 -93 -128 35 -33 70 -38 101 -14 28 22 57
85 47 101 -3 5 -1 7 4 4 6 -4 35 10 65 31 93 64 160 90 258 102 60 7 77 7 84
-1z m222 -47 c34 -39 31 -47 -21 -55 -11 -1 -25 -5 -30 -9 -10 -6 -75 45 -75
59 0 3 8 15 17 25 23 26 77 16 109 -20z m-117 -56 c5 -13 17 -26 25 -29 9 -4
16 -16 16 -27 0 -28 17 -25 33 6 10 20 23 27 50 30 l37 3 0 -57 c0 -70 -32
-147 -56 -138 -9 3 -20 6 -25 6 -6 0 -15 14 -21 31 -9 26 -13 29 -24 17 -9 -8
-28 -12 -48 -10 -32 4 -34 7 -41 49 -14 98 28 190 54 119z m-566 -27 c12 -7
23 -13 25 -14 7 -6 -51 -85 -61 -85 -18 0 -57 42 -57 61 0 48 41 65 93 38z
m617 -191 c18 -19 19 -24 6 -26 -20 -4 -86 17 -86 27 0 29 53 28 80 -1z"/>
<path d="M1606 1863 c-10 -3 -28 -14 -39 -24 -12 -10 -24 -19 -28 -19 -15 0
-17 -46 -2 -77 20 -43 11 -67 -23 -59 -22 6 -24 5 -15 -13 18 -32 52 -37 74
-10 23 28 17 72 -14 105 l-21 23 61 30 c33 17 67 31 75 31 8 0 18 5 21 10 6
10 -53 12 -89 3z"/>
<path d="M715 1525 c42 -35 119 -66 285 -115 264 -78 331 -110 434 -209 47
-46 55 -50 43 -26 -22 43 -103 118 -171 159 -68 41 -195 85 -350 121 -59 14
-136 37 -170 51 -87 36 -94 38 -71 19z"/>
<path d="M2235 1515 c-28 -12 -127 -43 -220 -68 -208 -55 -266 -77 -342 -126
-55 -35 -163 -144 -163 -164 0 -5 31 19 68 54 88 83 176 125 399 192 181 55
294 99 314 123 16 19 3 16 -56 -11z"/>
<path d="M600 1403 c0 -17 11 -21 78 -31 42 -7 91 -16 107 -21 l30 -9 -32 -1
c-17 -1 -66 6 -109 14 -79 15 -102 10 -91 -18 3 -9 29 -16 79 -20 120 -11 370
-71 497 -122 77 -30 100 -33 77 -9 -22 22 -20 27 7 12 12 -7 24 -12 27 -13 8
0 59 -37 93 -68 l32 -27 -30 11 c-16 6 -37 12 -45 14 -8 2 -42 15 -75 29 -215
89 -782 199 -723 141 3 -4 53 -15 110 -25 257 -46 529 -121 699 -191 l96 -40
9 -62 c8 -55 12 -63 37 -71 17 -6 37 -6 55 0 24 8 28 16 36 71 l9 62 96 40
c185 76 538 171 737 197 58 7 79 17 70 32 -7 12 -19 10 -206 -20 -196 -31
-459 -102 -550 -148 -46 -23 -105 -36 -96 -21 11 17 117 87 146 96 23 7 23 7
7 -10 -29 -28 -12 -29 60 -1 147 55 371 110 502 124 74 7 88 15 73 40 -7 10
-20 10 -58 2 -27 -6 -78 -14 -114 -19 -75 -10 -247 -53 -278 -70 -12 -6 -23
-7 -26 -2 -5 8 29 24 114 51 14 5 57 14 95 20 39 7 102 19 142 26 40 8 81 14
93 14 14 0 20 7 20 21 0 20 -3 21 -67 14 -301 -30 -609 -155 -775 -313 l-59
-56 -52 51 c-165 161 -476 287 -779 318 -63 7 -68 6 -68 -12z m310 -72 c19 -5
53 -16 75 -25 22 -9 42 -16 45 -16 2 1 6 -3 8 -9 3 -8 -4 -8 -25 0 -15 6 -39
13 -53 15 -14 3 -41 11 -60 18 -38 15 -42 16 -66 16 -8 0 -13 4 -9 9 3 6 15 7
28 5 12 -3 38 -9 57 -13z m620 -328 c0 -37 -13 -63 -30 -63 -20 0 -30 19 -30
56 0 20 5 24 30 24 22 0 30 -5 30 -17z"/>
</g>
</svg>
